<svg id="Layer_1" data-name="Layer 1" xmlns="http://www.w3.org/2000/svg" xmlns:xlink="http://www.w3.org/1999/xlink" viewBox="0 0 750 750"><defs><clipPath id="clip-path"><circle cx="375" cy="375" r="375" fill="none"/></clipPath></defs><title>Moon</title><circle cx="375" cy="375" r="375" fill="#f6cf5e"/><path d="M750,375c0-4.33-.18-8.62-.33-12.92a260.3,260.3,0,0,1-53,79c-4.7,4.78-10.45,9.7-17.13,9.18-6.52-.51-11.82-6.17-18.35-6.52-10.85-.57-16.64,12.69-26.08,18.09-9.66,5.52-22.24,2.19-32.49,6.51-8.26,3.48-13.7,11.31-18.68,18.75-17.77,26.54-36.32,55.91-33.39,87.72,2.27,24.65,16.52,52.67.68,71.7-10.82-11.35-29.58,0-39.73,12s-25,26.26-38.93,19.1c-10.11-5.19-13.15-19.57-23.63-23.93-9-3.74-19.14,1.59-28.83.8-20.91-1.69-39-30.63-56.68-19.34-6.74,4.3-9.32,13.11-15.68,17.94-4.35,3.3-9.95,4.36-15.32,5.32l-56.36,10.11c-5.64-28.13-32.67-58.19-58.63-46a29.72,29.72,0,0,0-15.8,18.73c-1.65,6-1.54,12.76-5.38,17.63-10.31,13.06-29.54-1.85-43.42-11-12.64-8.38-28.66-11.14-43.51-8.23A373.83,373.83,0,0,0,375,750C582.11,750,750,582.11,750,375Z" fill="#ebc11e" fill-rule="evenodd"/><path d="M658.84,173.71c9.13-2.2,16.35-8.87,20.82-17.22C611.6,61.76,500.55,0,375,0,167.89,0,0,167.89,0,375A373.65,373.65,0,0,0,29.67,521.4a32.07,32.07,0,0,0,6.55-4.52c9.71-8.8,23.3-20,33.9-12.31,13.75-7.39-3.55-29.36,2.3-43.84,1.66-4.11,5.13-7.18,7.56-10.88,10.41-15.82-.29-37,2.18-55.72,3.29-24.93,29.67-44,27.56-69C108.36,309,95.5,296.62,85,284.31a183.48,183.48,0,0,1-26.91-41.78c-6.45-13.83-9.64-33.41,3.19-41.67,6.53-4.2,14.93-3.62,22.66-2.88L164,205.6c5.73.55,11.66,1.16,16.65,4,6.55,3.78,10.78,11.1,17.85,13.79,8.66,3.29,19.16-1.34,27.31,3.06,15.45,8.35,6.18,38.25,22.29,45.21,3.46,1.5,7.56,1.5,10.63,3.69,7.78,5.54,3.12,19.88,10.71,25.67,3.46,2.65,8.24,2.44,12.49,3.44,17.7,4.2,25.86,29.48,44,30,12.94.4,22.42-12.37,34.88-15.88,31.59-8.89,56.75,43.18,88.18,33.72,18.13-5.46,28.6-30.24,47.46-28.56,6.73.6,14.22,4.58,19.65.55,4-3,4.36-8.82,6.56-13.35,7-14.33,29.07-11.7,41-22.26,8.64-7.64,10.06-20.36,10.9-31.86,1.58-21.6,2-46.31-13.65-61.25-6.45-6.15-15.45-10.39-18.62-18.71-1.58-4.14-1.44-8.71-1.27-13.13.29-7.87.67-16,4.35-23s11.71-12.3,19.32-10.26c4.11,1.1,7.86,4.2,12.08,3.62,4.86-.67,8.18-6,13.07-6.37,3.88-.25,7.11,2.75,9.81,5.54l26.58,27.37c3.51,3.62,7.07,7.27,11.4,9.84A28.88,28.88,0,0,0,658.84,173.71Z" fill="#fbd874" fill-rule="evenodd"/><g clip-path="url(#clip-path)"><path d="M220.84,373.94a15.74,15.74,0,0,0-1.31-3.19,27.31,27.31,0,0,0-2.54-7.43c-2.94-5.05-7.07-7.8-10.89-10.71S198.71,346,194.24,344c-1.23-.52-2.65-.62-3.89-1.13-2.59-1.08-4.65-2.8-7.45-3.29-5.81-1.08-11.42-.23-17.48-.08-1.86,2.33-5.23,1.39-7.33,4.27a18.64,18.64,0,0,0-9,5.71,14,14,0,0,0-6.7,4.15c-3.24,3.78-4.11,9-5.62,13.09-.77,2.13-2.27,4.06-2.79,6.24-.91,3.66-.11,7.95.29,11.85.2,1.86-.32,3.89.22,5.57s1.77,3,2.39,4.58c.8,1.91,1,4,2.08,6,.7,1.31,2.1,2.19,3,3.43,3.22,4.35,7,8.81,11.55,12.06s9.77,5.38,14.52,5.26c2.45,3,7,1.79,10.18,1.66,4.63-.12,9.72.35,13.91-1.2,1.38-.51,2.15-1.74,3.37-2.38,1.62-.76,3.57-.9,5-1.79s2.64-2.53,3.88-3.69c2.66-2.5,5.85-5,8.33-8.23a41.49,41.49,0,0,0,6.63-13.34,18.59,18.59,0,0,0,1.17-4.28C221.13,383.5,222.19,379,220.84,373.94Z" fill="#e7bc28"/><path d="M650.91,298.93a57.85,57.85,0,0,0-25-41.42A31,31,0,0,0,611.09,249a55.31,55.31,0,0,0-19.5-1.07,26.17,26.17,0,0,0-3.74,1l-1.49.18c-6.7.94-14.43,1.89-21.21,5.58a10.37,10.37,0,0,0-2.35,0c-5.09,2.82-8.87,4.1-13.06,9.55-4.35,5.94-5.92,13.93-7.35,20.53-.79,3.41-2.17,6.73-2.49,10.1-.41,5.68,1.35,11.84,2.75,17.5.65,2.71.71,5.64,1.76,8s2.9,4.11,4.08,6.37c1.58,2.69,2.54,5.65,4.68,8.43,1.36,1.8,3.5,3,5.14,4.73,6.07,5.95,14.08,11.25,22.6,13.78s17.2,2.56,23.9.21c5,1.74,10.63-1.73,15.13-3.8,6.47-2.89,13.71-6,18.58-11.34,1.66-1.67,2-3.89,3.38-5.65,1.57-2.47,4.06-4.45,5.13-7.08,1.3-2.63,1.6-5.76,2.21-8.46C650.43,311.8,651.52,305.36,650.91,298.93Z" fill="#e7bc28"/><path d="M196.1,570.85a10.54,10.54,0,0,1-2-2.43,34.58,34.58,0,0,0-8.74-9.55,10.67,10.67,0,0,1-1-.45c-.25-.15-.54-.21-.79-.35-1.22-.2-2.44-.35-3.56-.53a58.41,58.41,0,0,1-6.06-1.88,30.2,30.2,0,0,0-5.19.2,3.12,3.12,0,0,1-1.07.4,6.31,6.31,0,0,1-1.29-.11A31.12,31.12,0,0,0,152,563a.81.81,0,0,1,0,.16l-.22,0c-.49.43-1,.83-1.47,1.29-8.79,9.49-9.08,21.85-4.66,32.94a3.13,3.13,0,0,1,.42.39,4.17,4.17,0,0,1,.51,1.55c.6.52,1.18,1,1.34,1.15a40.69,40.69,0,0,1,5.46,6c6.65,3.9,13.95,6.74,21.78,6.8a21.83,21.83,0,0,0,6.73-1c.08,0,.16-.11.23-.14a10.79,10.79,0,0,1,1.42-.49c5.85-2.44,10-7.44,13.84-13.46l0,0c.8-2.21,2.16-4.33,2.66-7C201.46,584.74,199.54,577.13,196.1,570.85Z" fill="#e7bc28"/><path d="M432,537.49c-.39-2.06-1.63-4-2.16-5.84-1.57-4.95-2.64-11-6.21-14.5-1.2-1.1-3.07-1-4.28-1.81-1.53-1.14-2.34-3.29-3.95-4.17s-3.89-.79-5.62-1.13c-3.69-.82-7.51-2.44-11.82-2.51a32.7,32.7,0,0,0-16.81,4.57,49.08,49.08,0,0,0-12.54,11.1c-1.9,2.28-4.53,4.1-6,6.89-2.43,4.95-1.77,10.18-1.21,15.15.46,4.78.16,10.57,2.73,15,.69,1.19,2.12,1.93,2.83,3,1.43,2.33,1.88,5.08,3.94,6.84,4.41,3.6,9.51,4.48,13.46,8,3-2.17,4.29,1.65,7.5-.42a13.9,13.9,0,0,0,10.83,2.07,14.42,14.42,0,0,0,9-5.46c3.48-.57,7.84-3.81,9.6-7.4a11.16,11.16,0,0,0,6.86-6.21,38.09,38.09,0,0,0,2.68-9.52,32.8,32.8,0,0,0,.53-9.15A5.5,5.5,0,0,0,432,537.49Z" fill="#e7bc28"/><path d="M653.2,473c-.72-2-2.54-3.15-4.09-4.28s-2.67-2.94-4.5-3.52c-.49-.15-1.12.08-1.58-.1-.95-.26-1.66-1.24-2.66-1.23-2.1,0-3.8,1-5.65.41-.47,1.64-1.58.23-2.14,1.77-2.46-.95-5.52,1.15-6.05,3.54a5,5,0,0,0-2.91,3.56,3.21,3.21,0,0,0-1.72,1.51,4.07,4.07,0,0,0-1.71,2.11c-.65,2.18.61,4.42.82,6.09.12.86-.5,1.92-.3,2.74.25,1.45,1.65,2.52,2.29,3.71.33.54.13,1.43.52,1.9s1.28.48,1.66.91.51,1.39,1.06,2c.36.37,1.08.35,1.52.67a27,27,0,0,0,5.15,3.72c2.05,1,4.6,1.31,6.47.19a1.91,1.91,0,0,0,2.28.67c.7-.29,1.32-.83,2-1.05,1.72-.63,4-.66,5.46-1.87.44-.4.29-1.26.65-1.67s1.43-.59,1.79-1.15a7.06,7.06,0,0,0,.55-2.06c.44-1.31,1.31-2.45,1.71-3.83.93-3.78.3-7.41-.33-11.29C653.28,475.33,653.61,474.1,653.2,473Zm-16,9.14,0-.08c.07.07.12.13.06.06S637.21,482,637.19,482.1Zm-3.06-3.25c.7,1,.59.41,1.06,1.55.09-.76,1.15-.45,1.09-.41.16-.14-.32.29-.35.46s.55,0,.57.11c0,.44-.93.44,0,.75l.12.09a.43.43,0,0,1-.67-.1c-.5-.87-1.37-.84-2.1-1.05s-.89-.45-.42-.38c-.18,0-.35-.14-.24-.17a2.86,2.86,0,0,1,.46,0c.14,0-.52-.43-.49-.68s.33-.47.74-.54C633.93,478.61,634.08,478.77,634.13,478.85Z" fill="#d6ac20"/><path d="M40.49,361.09s0,.05,0,0Z" fill="#d4d3d1"/><path d="M44.2,354.52c-.43-.85-.4-2-1-2.84-1-1.44-2.73-1.94-4.18-2.63s-2.45-2.21-4.09-2.67c-.44-.13-1,.18-1.46.05-.87-.31-1.61-1.12-2.59-1.13-2.12.11-3.76,1.17-5.82.86-.31,1.7-1.67.49-2,2.13-2.76-.42-5.25,2.49-5,4.81a4.3,4.3,0,0,0-1.8,3.69c-2.29,1.26-1.69,4-1.42,6.14,0,.18.09.37.11.55a4.32,4.32,0,0,0-.53,1.53c-.22,2.35,1.55,4.23,2.11,5.82.3.82,0,1.94.35,2.73.61,1.36,2.25,2.11,3.26,3.1.5.47.58,1.43,1.17,1.77s1.44.16,2,.45,1.14,1.22,2,1.6c.55.26,1.35-.08,1.95.08a21.68,21.68,0,0,0,6.75.75c2.18-.2,4.15-1.09,5-2.71,1.9,1,2.35-1,3.09-1.69,1.13-1,3.07-1.58,3.88-2.93.25-.45-.13-1.15,0-1.6s1.12-.82,1.31-1.42a7.25,7.25,0,0,0-.08-2c.08-1.31.59-2.68.57-4.15C47.8,360.76,45.72,357.63,44.2,354.52Zm-15,7.62h0ZM27,360.52l.46.49a2.86,2.86,0,0,1,.17.39l.16.59.1.77c0,.14,0,.2,0,.23s0,0,0,0a.21.21,0,0,0,.11-.05h0c-.23.16-.47.32-.64.06s-.16-.31-.16-.4,0-.13-.12.2-.17.32-.23.42-.15,0-.16-.05,0-.4.4-.62c-.92-.34-.1-.76.19-1,.1-.14-.42-.55-.51-.88,0-.12,0-.19.07-.28Zm.14,2.59Z" fill="#e7bc28"/><path d="M425.5,723.69c.57-3.11-2.74-5.39-5.61-6.41A9.07,9.07,0,0,0,419,717c-.75-1.2-2.57-1.24-3.82-1.57-2.19-.7-5.08-2-7.8-1.28-.8.25-1.21,1.14-1.88,1.46-.85.46-2.09.32-2.82.91a8.82,8.82,0,0,0-1.68,2.35c-1.06,1.52-2.41,2.91-3.1,4.67-1.75,4.73-1.07,9.71,1.42,14.65.68,1.3,1,2.8,2.07,3.89,1.85,1.88,4.26,2.19,6.32,2.56s4,1.47,6.13,1.17c.57-.06,1.08-.6,1.63-.67,1.14-.17,2.36.24,3.45-.3,2.25-1.19,3.66-3.33,5.83-4.55-.63-1.72,1.36-1.65.73-3.36,2.73-1.68,3.08-6.17,1.37-8.24A5.93,5.93,0,0,0,425.5,723.69Z" fill="#d6ac20"/><path d="M740.33,371.47c-.06-.35-.81-.55-.9-.86s.45-.94.32-1.33-.79-.71-1.06-1c-.56-.73-.62-1.69-1.14-2.51-1.38-2.19-3.63-3.59-5.46-5.45L730.78,359l-2.26-.26-.2,0c-.86-.09-1.75-.83-2.69-.76-1.69.05-2.81,1.34-3.87,2.16s-2.57.86-3.44,1.85c-.24.26-.15.85-.39,1.07-.5.48-1.43.48-1.74,1.12-.67,1.35-.37,2.91-1.68,3.77,1.29,1.1-.49,1.1.64,2.17a3,3,0,0,0-.92,3.9,3.15,3.15,0,0,0-.29,1.92c.34,1.83,1.94,2.78,2.93,3.76a2.27,2.27,0,0,0,.78,1.32,3.18,3.18,0,0,0,.54,1.34c.81.94,2.37,1,3.38,1.55.5.25.71,1.08,1.26,1.2s1.2-.32,1.73-.23,1.09.84,1.9.94c.52.06,1-.4,1.58-.43,2.26,0,5.55-.21,7.87-2l1.27-1,1.11-2.29a3.2,3.2,0,0,0,.09-3c2-.3.84-1.56.88-2.28C739.34,373.71,740.49,372.55,740.33,371.47Zm-14.14.67c.09.16.17.34.25.51l-.23.23C726,372.59,726,372.25,726.19,372.14Z" fill="#e7bc28"/><path d="M388.43,172c-2-4.57-3.12-9.66-6-14.15C373.1,143.46,358,134.28,341,126.58a52.93,52.93,0,0,1-6.29-3.6,7.75,7.75,0,0,1-1.18.13c-1.35,0-2.7,0-4.05.06-.63,0-1.27.08-1.9.1h-.11l-.15,0a11.4,11.4,0,0,1-7.53-1,103.44,103.44,0,0,0-17.24,3.21c-.25.12-.5.25-.75.36a58.27,58.27,0,0,1-8.78,2.9,75,75,0,0,0-13.91,7.43c-.7,1.32-1.26,2.79-2.25,3.64-1.75,1.44-4,2.22-6.07,3.22a56.06,56.06,0,0,0-6.5,7.63c-1.89,4.33-3,8.78-5,12.9a10.63,10.63,0,0,1,.16,3.76,145.19,145.19,0,0,0,1.92,50.87c2.32,3.52,4.78,6.73,6.33,9.77s1.48,6.82,2.59,10.11a143.21,143.21,0,0,0,15.69,12.76c1.64.81,3.27,1.63,4.79,2.5a14.43,14.43,0,0,1,3,2.45c.49.27,1,.54,1.44.77a41.73,41.73,0,0,0,10.68,3.59,12.59,12.59,0,0,1,4.53-.46,18.54,18.54,0,0,1,4.89,1.56,77.82,77.82,0,0,0,14.2-.84,3.09,3.09,0,0,1,.43-.14l3.55-.55a90.64,90.64,0,0,0,15.19-4.34,65.91,65.91,0,0,0,25-16.54,19.35,19.35,0,0,0,1.49-4.68,11,11,0,0,0,2.44,0C390.09,217.41,392.87,195,388.43,172Zm-72.8,21.21,0,0a9.23,9.23,0,0,1,1.35-1.1,4.46,4.46,0,0,0,.55,1.57C316.18,195.6,315.74,194.49,315.63,193.23Z" fill="#e7bc28"/><path d="M325.2,231.52a1,1,0,0,0,0,.17l-.34,0Z" fill="#d4d3d1"/><polygon points="323 224.74 322.99 224.73 322.9 224.6 322.85 224.53 323 224.74" fill="#d4d3d1"/><path d="M325,235.81a1.5,1.5,0,0,1-.22-.55Z" fill="#d4d3d1"/><path d="M509.77,51.11a11.56,11.56,0,0,0-2-2.37A28.42,28.42,0,0,0,503.6,44c-4.61-3.43-10.23-4.49-16.33-3.75-1.67.22-3.42.06-5,.75-2.79,1.22-4.26,3.59-5.64,5.67s-3.32,3.9-3.95,6.37c-.15.67.06,1.43-.07,2.09-.3,1.37-1.19,2.56-1,4,.28,3.05,1.89,5.52,2.41,8.38,1.91.2,1.24,2.17,3.18,2.43a7.68,7.68,0,0,0,3.57,4.35,8.2,8.2,0,0,0,4.89,1,11.11,11.11,0,0,0,2.88,1.26c.88.16,1.79-.32,2.67-.3a25.89,25.89,0,0,0,4.2-.36h0a18.52,18.52,0,0,0,5-1.48c2.74-1.29,4.92-3.39,5.58-5.83,2.5-.1,2.45-2.84,3.06-4.41.88-2.28,2.51-5,2.24-7.73-.06-.91-.88-1.5-1.1-2.27C509.87,53.23,510.14,52.06,509.77,51.11Zm-17.4,10.28h0s0,0,0,0Z" fill="#e7bc28"/><path d="M645.81,637.17c-.33-.77,0-1.79-.37-2.53a10.09,10.09,0,0,0-2-1.91c-1.27-1.3-2.52-3.06-4.48-4.17a13.49,13.49,0,0,0-8.34-1.51,20.67,20.67,0,0,0-7.25,2.54c-1.15.63-2.59.87-3.64,1.77-1.64,1.46-2.22,3.46-2.77,5.41-1.56,1.28-3,2.54-3.12,4.9,0,2.57,1.66,4.56,2.61,6.22a5.09,5.09,0,0,0,.65,2,4.61,4.61,0,0,0,.42,1.38c.92,1.43,2.77,2.19,4.11,3.18.65.48,1,1.49,1.7,1.8s1.64.07,2.4.32,1.62,1.14,2.76,1.4c.71.19,1.58-.3,2.36-.26a16.69,16.69,0,0,0,8.84-2c2.75-1.56,4.48-4.19,4.51-6.52,2.36-.56,1.67-2.95,1.81-4.29.31-2,1.39-4.18.94-6.21C646.83,638.11,646,637.76,645.81,637.17Z" fill="#d6ac20"/><path d="M100,131.9c-.6-2-1.2-4.23-2.83-5.81-.65-.63-1.64-.58-2.38-1-.9-.64-1.57-1.79-2.64-2.23s-2.44-.24-3.51-.38c-2.26-.14-4.69-.41-7,.23a16.31,16.31,0,0,0-7.42,4.63,24,24,0,0,0-4.68,7.25c-.65,1.48-1.67,3-1.84,4.84a8.14,8.14,0,0,0,.1,1.86,6.27,6.27,0,0,0-.09,4.29c.82,2.1,2.61,3.35,4.14,4.48a10.52,10.52,0,0,0,2.61,3.33,3.62,3.62,0,0,0,1.07.5l0,.06a5.74,5.74,0,0,0,1,.5c1,.8,1.75,1.91,3,2.3,2.89.91,5.79.27,8.57.84.87-1.68,2.43-.35,3.34-2.07a7.34,7.34,0,0,0,5.21-1.7,7.78,7.78,0,0,0,2.74-4.48,7.73,7.73,0,0,0,2.69-5.86c2.5-2.76,1-7.29-1.1-10.15A17.06,17.06,0,0,0,100,131.9Zm-13,7.87c0-.1.16-.12.25-.17,0,.15.1.29,0,.32s-.17,0-.22,0l0-.06.09.25,0,.09a1,1,0,0,1-.69-.57,3.57,3.57,0,0,0,.39-.38C86.82,139.37,86.86,139.52,86.93,139.77Z" fill="#e7bc28"/><path d="M279.41,234c-7-9.92-10.44-22-11.47-34.12a96.45,96.45,0,0,1,9.39-50.17c2.12-4.35,4.64-8.62,8.22-11.88,5.67-5.16,13.38-7.3,20.79-9.28l18.79-5a10.9,10.9,0,0,1-5.39-1.24,103.44,103.44,0,0,0-17.24,3.21c-.25.12-.5.25-.75.36a58.27,58.27,0,0,1-8.78,2.9,75,75,0,0,0-13.91,7.43c-.7,1.32-1.26,2.79-2.25,3.64-1.75,1.44-4,2.22-6.07,3.22a56.06,56.06,0,0,0-6.5,7.63c-1.89,4.33-3,8.78-5,12.9a10.63,10.63,0,0,1,.16,3.76,145.19,145.19,0,0,0,1.92,50.87c2.32,3.52,4.78,6.73,6.33,9.77s1.48,6.82,2.59,10.11a143.21,143.21,0,0,0,15.69,12.76c1.64.81,3.27,1.63,4.79,2.5a14.43,14.43,0,0,1,3,2.45c.49.27,1,.54,1.44.77a41.73,41.73,0,0,0,10.68,3.59,12.59,12.59,0,0,1,4.53-.46,18.54,18.54,0,0,1,4.89,1.56,77.82,77.82,0,0,0,14.2-.84,3.09,3.09,0,0,1,.43-.14l3.55-.55c1.41-.28,2.76-.66,4.14-1-8.74,0-17.5-.42-25.92-2.65A57.63,57.63,0,0,1,279.41,234Z" fill="#d6ac20"/></g><path d="M402.68,579.76h0a11.64,11.64,0,0,1-3.74-1.3c-2.28-1.23-4.45-2.88-7-3.23-1.71-.23-3.59.12-5.08-.77-.92-.56-1.53-1.52-2.39-2.17-1.85-1.38-4.54-1.11-6.43-2.44a9,9,0,0,1-2.64-3.68c-2.08-4.31-4.22-8.92-3.71-13.68a12.53,12.53,0,0,0,.2-4.13c-.34-1.43-1.38-2.56-2-3.88-1.51-3.18-.43-6.93.66-10.27,2.15-6.61,4.85-13.88,11.07-17,1.41-.71,3-1.19,4.08-2.35a23.69,23.69,0,0,0,1.45-2.1c2.15-3,6.13-3.88,9.75-4.57l-1.2-.55a33,33,0,0,0-14.57,4.44,49.08,49.08,0,0,0-12.54,11.1c-1.9,2.28-4.53,4.1-6,6.89-2.43,4.95-1.77,10.18-1.21,15.15.46,4.78.16,10.57,2.73,15,.69,1.19,2.12,1.93,2.83,3,1.43,2.33,1.88,5.08,3.94,6.84,4.41,3.6,9.51,4.48,13.46,8,3-2.17,4.29,1.65,7.5-.42A13.9,13.9,0,0,0,402.68,579.76Z" fill="#d6ac20"/><path d="M603.59,354.33c-25.32-1.59-48.65-21.34-53.89-46.25-3.23-15.34.43-32.62,11.71-43.51,7.15-6.89,16.6-10.76,25.81-14.47a43.07,43.07,0,0,1,7.07-2.34c-.9.07-1.82.11-2.69.2a25.94,25.94,0,0,0-3.75,1l-1.49.18c-6.7.94-14.43,1.89-21.21,5.58a10.37,10.37,0,0,0-2.35,0c-5.09,2.82-8.87,4.1-13.06,9.55-4.35,5.94-5.92,13.93-7.35,20.53-.79,3.41-2.17,6.73-2.49,10.1-.41,5.68,1.35,11.84,2.75,17.5.65,2.71.71,5.64,1.76,8s2.9,4.11,4.08,6.37c1.58,2.69,2.54,5.65,4.68,8.43,1.36,1.8,3.5,3,5.14,4.73,6.07,5.95,14.08,11.25,22.6,13.78A39.7,39.7,0,0,0,603.59,354.33Z" fill="#d6ac20"/><path d="M600.94,247.61c-.31,0-.61,0-.92,0a10.8,10.8,0,0,1,1.13.24Z" fill="#c3c2c0"/><path d="M183.9,339.84a7.73,7.73,0,0,0-1-.29c-5.81-1.08-11.42-.23-17.48-.08-1.86,2.33-5.23,1.39-7.33,4.27a18.64,18.64,0,0,0-9,5.71,14,14,0,0,0-6.7,4.15c-3.24,3.78-4.11,9-5.62,13.09-.77,2.13-2.27,4.06-2.79,6.24-.91,3.66-.11,7.95.29,11.85.2,1.86-.32,3.89.22,5.57s1.77,3,2.39,4.58c.8,1.91,1,4,2.08,6,.7,1.31,2.1,2.18,3,3.43,3.22,4.35,7,8.81,11.55,12.06s9.77,5.38,14.52,5.26c1.79,2.16,4.67,2.12,7.34,1.89-13.93-2.1-24.94-14.28-30.2-27.56-5.91-14.94-5.51-33.82,6-45.07C159.53,342.68,172,340.25,183.9,339.84Z" fill="#d6ac20"/><path d="M170.24,559.13c4.44-1,9.07-1.7,13.57-.92l-.2-.1-.07,0c-1.22-.2-2.44-.35-3.56-.53a58.41,58.41,0,0,1-6.06-1.88,30.2,30.2,0,0,0-5.19.2,3.12,3.12,0,0,1-1.07.4,6.31,6.31,0,0,1-1.29-.11A31.12,31.12,0,0,0,152,563a.81.81,0,0,1,0,.16l-.22,0c-.49.43-1,.83-1.47,1.29-8.79,9.49-9.08,21.85-4.66,32.94a3.13,3.13,0,0,1,.42.39,4.17,4.17,0,0,1,.51,1.55c.6.52,1.18,1,1.34,1.15a40.69,40.69,0,0,1,5.46,6,48.83,48.83,0,0,0,16.14,6.28,31.78,31.78,0,0,1-13.94-10.1,42.65,42.65,0,0,1-5.7-9.33,28.8,28.8,0,0,1-2.71-9.89,20.94,20.94,0,0,1,4.9-14.78C156.58,563.4,163.46,560.72,170.24,559.13Z" fill="#d6ac20"/></svg>