<?xml version="1.0" encoding="utf-8"?>
<!-- Generator: Adobe Illustrator 25.4.1, SVG Export Plug-In . SVG Version: 6.00 Build 0)  -->
<svg version="1.1" id="Layer_1" xmlns="http://www.w3.org/2000/svg" xmlns:xlink="http://www.w3.org/1999/xlink" x="0px" y="0px"
	 viewBox="0 0 750 750" enable-background="new 0 0 750 750" xml:space="preserve">
<linearGradient id="SVGID_1_" gradientUnits="userSpaceOnUse" x1="190.4496" y1="562.3694" x2="479.6396" y2="268.5894" gradientTransform="matrix(1 0 0 -1 0 749.8898)">
	<stop  offset="0" style="stop-color:#A1D6F1"/>
	<stop  offset="1" style="stop-color:#6EC2DD"/>
</linearGradient>
<circle fill="url(#SVGID_1_)" cx="375" cy="375" r="375"/>
<path fill="#CAE9F9" d="M558,49.4c2.2,0.5,4.3,1.1,6.4,1.9C466.3-6.2,347.6-15.3,243,24l0.1,0.1c5.6,4.4,13.6,3.4,20.2,1.1
	c2.6-0.9,5.5-2,7.9-0.8c3.2,1.6,3.4,6.6,1.3,9.5s-5.7,4.4-9.1,5.7c-14.7,5.9-29,12.7-42.8,20.4c-4.1,2.3-9.4,4.6-13.1,1.7
	c-3.5-2.7-3-8-2.4-12.4c0.4-2.7,0.5-5.9-0.4-8.4C106.2,91.1,34.9,182.2,9.8,289.9c6.5,2,13.6,1.2,19.6-2.1c9-5.1,14.9-14.3,20-23.3
	c26-45.3,45.4-96.1,83.9-131.5c5.8-5.3,13.6-10.5,20.8-7.5c21.6,8.8-13.2,43.1-13.9,56.2c-0.3,3.2,0.2,6.4,1.4,9.4
	c3.2,6.8,11.8,9.6,19.3,8.4s13.9-5.6,20.1-9.9c30-20.5,62.3-37.3,96.2-50.1l52.5-19.9c8.8-3.4,18.6-7.5,22.2-16.2
	c18.3-43.3-59.5-22.8-74.6-23.1c-3.5-0.1-7.3-0.6-10-2.8c-8.9-7.4,1.7-21.2,11.8-26.6C332,22.3,392.5,18.8,449.6,34.6
	c5,1.4,10.2,2.9,14,6.5s5.3,10,2,14c-3.8,4.6-11,3.5-16.9,4.4c-6,0.9-11.3,4.5-14.1,9.9c-2.7,5.3-2.1,12.3,1.8,16.8
	c5.5,6.3,15.1,6.3,23.5,6.7c37.9,1.6,74.1,16.4,109.6,28.5c5.4,1.8,11.4,3.7,16.6,1.4c6-2.7,8.6-10.3,7.3-16.7s-5.7-11.8-10.5-16.3
	c-8.6-8.1-19-14.2-29.8-19c-5.1-2.2-11-5.1-11.9-10.5C539.9,52.5,550.3,47.9,558,49.4z"/>
<path fill="#43B3D4" d="M747,421.6c10.6-84.2-7.7-169.4-51.8-241.8c-0.4,0.5-0.9,0.9-1.3,1.4c-15.6,19.7-2.7,49.6-11.5,73.1
	c-13.4,35.8-69.5,41.5-80.2,78.2c-7.2,24.9,17.2,53.1,42.9,49.6c8.4-1.2,16.6-5.1,25.1-4.2c11.9,1.3,21.1,12.2,23.6,24
	s-0.4,23.9-4.5,35.2c-15.6,42.5-47.7,76.8-82.1,106.2c-12.5,10.8-26.3,21.4-42.6,24s-35.6-5.9-39.3-22
	c-5.8-24.8,21.9-45.5,23.1-69.9c0.6-11.7-6.2-24.7-17.7-26.9c-7.5-1.5-15.3,1.9-21,7.1s-9.5,11.9-13.4,18.5
	c-18,31.4-42.2,51-80.2,53.7c-36.8,2.6-73.2-13.2-100.9-37.5c-13.2-11.6-24.3-24.8-35.9-38.1c-16.2-18.7-33.2-37.9-55.6-48.5
	s-51.9-10.4-69.3,7.2c-21.1,21.3-15.9,51.6-2.5,75.6c15.2,27.3,43.7,39.6,59.7,64.3c11,17,9.9,43.9-7.9,53.4
	c-30,16.1-60.4-29.8-75.9-49.1c-5.3-6.7-10.6-13.6-17.7-18.4s-16.4-7.2-24.2-3.7c-10.6,4.6-14.7,18.2-12.2,29.5s10,20.7,17.3,29.6
	l12.6,15.5c6.3,7.7,12.9,16.6,11.9,26.5c-0.3,3-1.4,5.9-3.1,8.5c67,65.9,156.4,104.2,250.3,107.1c0.1-8.2-2.8-16-9.3-20.9
	c-8.5-6.5-21.3-7.2-27.2-16.1c-6.6-9.9,0.4-24.1,10.8-29.9s22.9-5.7,34.8-6.4c33-2.1,65-11.6,93.8-27.8
	c11.2-6.3,22.5-13.9,35.3-15.1c12.9-1.2,27.8,7,28.4,19.9c1,23-37,26.6-45.8,48c-4.3,10.4,0.5,22.1,8.9,29.8
	c102.2-33.7,185-109.7,227.3-208.6c-8.6-4.4-20-2.3-24.5-13.1c-7-17,13.9-35.7,23.7-47.2C729.5,449.6,738.9,436,747,421.6z"/>
<path fill="#239C24" d="M74.9,150.2c1.3,4.3,3.4,8.6,2.6,13c-1.3,6.9-9.3,10.6-11.8,17.2s1.2,14.1,0.2,21.1
	c-0.9,6.3-5.4,11.4-9.3,16.4c-11.4,14.7-18.9,34.7-11.5,51.8c3.7,8.6,11,16.1,11,25.5c0,5-2.2,9.7-2.8,14.7
	c-1.1,10.4,4.5,20.3,14,24.7l2.7,1.7c2.1,7.2,0.7,14.9,1.2,22.4s4,15.8,11.3,17.8c5.2,1.4,11.2-0.9,16,1.6
	c5.4,2.8,6.9,10.4,12.2,13.5c3.1,1.8,6.9,1.7,10.4,2.5c19.4,4.4,23.3,33.3,41.8,40.8c1.9,0.8,4.3,1.1,5.6-0.3c1.2-1.3,1-3.3,0.4-4.9
	c-3.6-9.7-17.5-13.6-18.8-23.8c-0.8-6.3,3.6-13.5-0.3-18.4c-4-5.2-12.9-2.6-17.9-6.9c-7.9-6.8,0.3-15.4-1.3-23.1
	c-0.6-3.1-3.4-6-6.6-5.7c-8.6,1.1-9.5,23.4-22.5,12.5c-8.1-6.7,1.1-19.5,0.3-30c-0.4-4.4-2.6-8.5-3.6-12.9s0.1-9.8,4.2-11.6
	c5-2.2,10.9,2.6,16.1,0.9c3.4-1.1,5.3-4.7,8-7.2c6.3-5.8,17.8-4,22,3.5c3.6,6.3,4,16.6,11.2,17.1c5.9,0.5,9.1-7.2,8.5-13.1
	s-3-12.1-0.6-17.6s8.7-8,13.7-11.4c14.3-9.7,11.5-22.1,14.2-36.8c0.2-1.5,0.7-2.9,1.6-4.2c1.9-2.3,8.3-2.8,11.1-2.8
	c5.2,0,11.5,0.5,14.7-3.6c2.7-3.5,1.9-8.9,4.8-12.2c6.2-7,19.6,3.2,26.7-2.9c6.3-5.5-0.5-15.5-1-23.9c-0.7-10.8,12.7-19.6,22.3-14.6
	c4.8,2.5,7.9,7.3,12,10.8s10.6,5.5,14.6,1.9c9.8-8.9-9.8-23.7-10.1-32.9c-0.1-2,0.2-4.1-0.2-6c-0.6-1.9-1.5-3.6-2.7-5.1
	c-2.8-4-5.8-8.2-10.3-10.2c-2.7-1.2-6-1.6-8-3.7c-1.5-1.6-1.9-3.9-2.3-6.1s-0.8-4.4-2.2-6.1c-1.7-2.1-4-0.5-5.3-1.4
	c-1.6-1.1-2.4-2.4-3.5-4.5c-2.3-4.3-4.3-8.8-6-13.3c-0.9-2.4-2-5.1-4.4-6c-2.2-0.9-4.7,0.1-6.8,1.4c-10.5,6.4-16.9,17.9-16.8,30.3
	c0.1,3.7,0.7,7.6-0.9,10.9c-3.2,6.9-13.7,7.5-17.2,14.2c-1.9,3.6-1.3,8-1.6,12.1s-2.8,8.8-6.9,8.9c-7.4,0.1-6.3-10.1-5.4-14.7
	c2.3-11.2,0.2-13.6-7.4-21.9c-6.8-7.4-6.6-10.3-2.5-18.8c3.1-6.4-0.9-14.9,7.5-18.8c2.8-1.3,6-1.3,8.8-2.7c4.4-2.2,3.6-5.5,5.6-8.9
	c1.8-3.1,5.6-5.2,8.7-7.4c-0.6-3.5-4.9-5.1-8.4-4.5s-6.5,2.6-9.9,3.6c-13.5,4-27.8-8.3-41.4-4.8c-5.7,1.5-10.4,5.5-15.6,8.3
	c-9.3,7.7-18.3,15.8-27,24.5C97.2,122.4,85.6,135.9,74.9,150.2z"/>
<path fill="#239C24" d="M321.2,3.9c1.8,1.1,3.8,1.7,5.9,1.6c1.4,0,3-0.2,4.1,0.6c3.2,2.3-1.2,8,1.1,11.2c1,1.4,2.9,1.7,4.5,2.3
	c6,2.2,9.2,8.8,7,14.9c-0.7,1.9-1.8,3.5-3.3,4.8c-3.1,2.7-8,4.1-9.1,8.1c-0.6,2.1,0,4.4,0,6.6c0,4.2-2.2,8-4.5,11.6
	s-4.6,7.3-4.8,11.5s2.7,8.8,6.9,9c1.2,0,2.5-0.3,3.5,0.3c1.4,0.7,1.7,2.5,1.9,4c0.8,5,3,9.9,7.2,12.8c4.5,2.8,10.3,3.1,15,0.6
	c4.7-2.6,8.1-6.9,9.6-12c1.6-5.2,1.7-11.3,5.7-15c3.7-3.4,9.5-3.3,13.8-5.9c6.6-4,8-12.8,12.2-19.2c5.2-7.9,15.1-12.7,17.5-21.9
	c1.7-7-1.6-14.2-8-17.6c-3.7-1.8-8.1-2.1-11.8-4.1c-3-1.8-5.4-4.5-6.8-7.7C366.2-0.5,343.6,0.7,321.2,3.9z"/>
<path fill="#239C24" d="M737.1,277.5c-1.8-1.2-3.4-2.4-3.6-4.5c-0.1-1.3,0.5-2.5,1.5-3.3c-17.6-60.4-50.2-115.4-94.8-159.9
	c-11-10.9-22.6-21.2-34.8-30.7c-1.3,0.3-2.5,0.6-3.8,1c-3.3,1.1-6.7,3.7-6.6,7.2c0,1.9,1,4,0,5.6s-3.1,1.6-4.8,1.1
	c-2.6-0.7-4.9-2.2-7.5-2.8s-5.8-0.1-7,2.3c-5.1,9.8,18.3,10.4,10.9,23.5c-2.3,4.1-6.9,6.5-11.6,7.6s-9.4,1-14.2,1.5
	c-17.4,1.9-57.7,23-49.3,46.3c1.2,3.2,3.9,6,3.8,9.4c-0.1,5.1-6.3,7.7-11.5,7.9s-10.9-0.5-14.8,2.8c-4.2,3.5-4.3,9.9-3.1,15.2
	c0.1,1,0.6,2,1.5,2.7c0.9,0.4,1.9,0.5,2.8,0.5c4.9,0.6,6,7.1,9.2,10.9c4.4,5.2,12.9,4.8,18.8,1.4c2.1-1.1,3.9-2.7,5.1-4.6
	c3.4-6-0.9-14.9,3.8-20c2.7-2.9,7-2.4,10-4.7s3.9-6.7,6.9-8.4c6.7-3.8,14.1-6.1,21.8-6.8c4.7-0.4,10.3,0.2,12.8,4.2
	c1.3,2.1,1.4,4.8,2.8,6.8c1.7,2.5,4.8,3.5,7.8,3.7s6-0.3,9,0c14.2,1.2,13.8,21.3,26.5,19.6c4.6-0.7,8.3-4.2,9.3-8.8
	c0.5-2.8,0-5.9,1.8-8.1c1.3-1.7,3.7-2.4,5.1-4.1c1.8-2.4,0.9-5.9,0.7-8.9c-0.4-5,1.7-10.5,6.2-12.8s11-0.1,12.1,4.8
	c0.3,1.5,0.2,3.2,1.3,4.3c3.2,3,7.8-4.7,11.7-2.8c3.5,1.7,0.5,7.1,1.7,10.8c1,3,4.8,4.1,6.2,7c1.6,3.2-0.6,7.1-3.7,9
	c-4.5,2.8-10.1,2.5-15.3,1.9s-10.6-1.6-15.6,0.1s-9.1,7.1-7.4,12.1c1.8,5.1,8.3,6.6,13.7,6.8h2.9c5-1.8,10.4-3.3,15.7-2.3
	c16.5,3.4,4.4,16.7,3,26.3c-0.4,1.9-0.4,3.9,0.2,5.8c1.2,3,4.7,4.5,6.5,7.3c2.7,4.3,0.7,9.8,0.7,14.9c0.2,11.7,9.1,14.2,18.2,16.9
	c4.2,1.2,8.8,2.7,11.4,6.3s2.5,8.2,1.5,12.4s-2.8,8.2-3.5,12.4c-0.4,1.7-0.3,3.5,0.2,5.2c2.2,6,11.1,5.5,9.9,13.6
	c-0.3,1.8-1.1,3.5-1.4,5.3c-0.6,4.5,3.2,8.8,7.6,9.5s9-1.5,11.8-5.1c2.2-2.8,3.3-6.4,5.8-9c1.5-1.6,3.3-2.9,5.3-3.8
	C746.4,318.8,742.6,297.9,737.1,277.5z"/>
<path fill="#239C24" d="M623.9,256.1c-12-2-25.6,1.1-35.7-5.7c-5.7-3.8-9.1-10.1-13.6-15.3s-11-9.8-17.7-8.1
	c-6,1.5-9.9,7.5-15.7,9.5c-10.6,3.5-21.6-6.4-32.1-3.1c-11.1,3.5-19.2,19.5-26.6,27.6c-4.8,5.3-10.2,9.9-14.9,15.2
	c-9.4,10.5-16.2,24.8-13.5,38.6c0.8,3.9,2.2,7.8,2.2,11.7c0,4.8-2.3,9.4-2,14.1c0.6,8.9,10.9,25.8,16.6,32.6
	c4.6,5.6,8.2,7.9,11.6,14.9c2.5,5.1,3.7,10.8,8.7,14.3c6.6,4.8,15.8,2.7,23.6,0.5l15.3-4.4c1.5-0.5,3-0.7,4.6-0.6
	c1.7,0.3,3.1,1.4,4.6,2.3c4.8,3,10.5,4.3,16.1,3.6c4.8-0.6,10.5-2.2,13.8,1.4c2.8,3.1,1.5,8.3,3.5,12c1.3,2.5,4,3.9,6.1,5.8
	s4,4.7,3,7.3c-2.7,7.3-10.2,13.8-3.8,22.3c2.6,3.5,6.4,5.8,9.1,9.1c4.1,5.1,5,13,0.8,18c-1.4,1.6-3.2,2.8-4.3,4.6
	c-2.4,3.7-1.1,8.6,0,12.9s1.5,9.6-1.9,12.5c-1.2,1-2.8,1.6-4.1,2.5c-3.7,2.8-4.2,8.2-3,12.7c2.2,8,7.7,11.2,4,20.5
	c-2.1,5.3-5.3,10.5-4.5,16.1c0.9,5.8,6.1,10.3,7,16.2c0.8,5.3-2.1,10.7-1.1,15.9c1.8,9.1,13.9,12,22.7,9.2c7.4-2.4,13.7-7.2,18-13.6
	c2.5-3.8,4.2-8,6.9-11.5c9.8-13,30.9-15,37.7-29.8c2.6-5.7,2.5-12.2,4.7-18c4.6-12,18.1-18.6,23.2-30.4c2.8-6.5,2.7-13.8,3.4-20.9
	c2.1-21,12-40.9,26.2-56.6c6.6-7.3,14.4-14.1,18.2-23.2s2.2-21.6-6.6-26.1c-4.6-2.3-10.5-2.2-14.2-5.7c-4.3-4-3.9-11.2-7.7-15.6
	c-1.8-2.1-4.4-3.4-6.6-5.2c-10.4-8.6-6.4-21.1-8.6-32.2c-0.9-4.8-5.7-7.7-9.8-10.2c-6.8-4.1-12.9-9.2-15.2-17
	c-2.3-7.5,1.1-13.8-7.1-17.6c-5.2-2.4-13.6,0.9-19.3-0.1C635.9,267.3,632.8,257.6,623.9,256.1z"/>
<path fill="#239C24" d="M242.5,636.9c5.3,8,4.2,18.6,8.1,27.4c6.6,14.7,26.1,21,31.3,36.3c1.4,4.1,2,9.1,5.8,11.2
	c6.4,3.5,12.9-5.9,11.7-13.1s-6.2-13.6-6.1-20.9c0.1-15,19.7-22.2,24.9-36.3c3.8-10.3-0.6-22.9,5.6-31.9c6.5-9.4,20.9-9.5,28.6-17.9
	c10.8-11.8,2.2-31.3,7.1-46.5c3-9.2,11-16.9,11.1-26.6c0.2-11.8-14.2-21-24.8-15.9l-5.4,0.4c-12.2,0.1-24.2-2.4-35.3-7.3
	c-2.5-0.9-4.7-2.3-6.7-4.1c-2.5-2.6-3.7-6.2-4.9-9.6c-3-8.8-7.9-18.4-16.9-20.8c-4.4-1.2-9.1-0.3-13.7-0.2s-9.7-0.9-12.4-4.6
	c-4.4-6.1-1.4-13.8-11.2-14.6c-3.4-0.3-6.9,0.3-10.2-0.4c-4.5-0.9-8.2-4-12.1-6.3c-3.7-2.2-7.8-3.9-12-4.9c-2-0.6-4.1-0.7-6.1-0.3
	c-5.6,1.4-8.8,9-14.6,8.6l-3.4,0.8c-6.8-1.9-12.6,5.8-13.6,12.8s0.7,14.4-1.9,21c-1.7,4.1-4.9,7.4-6.7,11.5
	c-3.7,8.1-1.6,17.5,0.6,26.1c0.7,3,1.6,6,3.6,8.3c2.2,2.4,5.6,3.5,8.3,5.4c8.7,6.4,7.8,20,14.4,28.5c7.7,10,23.3,10.7,31.5,20.4
	c9.7,11.5,4.3,29.4,10.5,43.1c2.8,6.2,7.9,11.2,12.8,15.9L242.5,636.9z"/>
<path fill="#63AC00" d="M181.6,483.2c-4.1,0.7-6.5,5.3-6,9.4s3.1,7.6,6,10.5s6,5.7,8.1,9.3c3.6,6.3,3.3,14.6,8,20.3
	c3.7,4.5,9.7,6.3,14.9,9c5.1,2.7,9.7,6.4,13.3,10.9c3.3,4.1,6.3,9.2,11.4,10.4c6.6,1.6,13.1-5,13.4-11.8s-4.2-13-9.6-17.2
	c-2.4-1.8-5-3.4-7.1-5.6c-7.2-7.6-6.2-20.7-13.9-27.9c-2.3-2.2-5.2-3.6-7.9-5.5c-4-2.8-7.2-6.5-10.9-9.7s-8.1-5.9-13-6
	s-10,3.1-10.7,7.9L181.6,483.2z"/>
<path fill="#63AC00" d="M552,261.2c0.2-5.3,7.7-7.2,12.4-5s8.2,6.8,12.8,9.3c10.7,5.7,24.3-0.6,35.9,3c9,2.7,15.8,11.1,25.1,12.5
	c5.3,0.8,12-0.2,14.8,4.3c1.2,2,1.2,4.4,1.8,6.7c1.9,8.3,10.2,13.2,15.2,20.1c7.1,10,6.1,25-2.4,34c-2.3,2.4-6,4.4-8.7,2.5
	c-1-1-1.9-2.1-2.5-3.3c-3.2-4.4-9.5-5.4-14.9-4.3s-10.4,3.5-15.8,4.5c-8.6,1.6-17.5-0.7-24.2-6.3c-17.9-14.9-14.8-47.4-35.2-58.7
	c-4-2.2-8.4-3.3-12.4-5.4s-7.7-5.8-7.9-10.3s4.6-9.1,8.7-7.1L552,261.2z"/>
<path fill="#63AC00" d="M486.5,317.6c-3.3,0.7-5.9,3.2-6.9,6.4c-0.9,3.2-0.3,6.7,1.6,9.4c1.6,2.4,4,4.2,5.7,6.6
	c2.1,3,2.8,6.8,4.4,10.1c2,4.4,5.8,8.3,10.6,9.1c3.1,0.3,6.3-0.3,9-1.9c4.9-2.4,8.6-6.8,10.2-12c1.4-5.2-0.1-11.3-4.3-14.7
	c-3.8-3.1-8.9-3.7-13.7-4.5c-2.9-0.5-6-1.2-8.1-3.3c-1.2-1.2-2.1-2.8-3.3-3.9c-2.5-2.1-6-2.4-8.8-0.7L486.5,317.6z"/>
<path fill="#63AC00" d="M621,92.1c-1.3,0.4-2.5,0.8-3.6,1.4c-2.9,1.7-4.5,5-3.9,8.3c0.6,3.3,3.3,5.8,4.6,8.9c1.5,3.6,1.1,7.9,3.5,11
	c3,3.9,8.9,3.7,13.6,5.3c6,2.2,10.8,7.9,17.2,8c2.2-0.1,4.3-0.5,6.4-1.3c0.9-0.3,1.8-0.6,2.7-0.9c-6.7-7.9-13.7-15.5-21.1-23
	C634,103.6,627.5,97.7,621,92.1z"/>
<path fill="#63AC00" d="M727.1,250.5c0.5-0.3,0.9-0.5,1.4-0.8c-4.6-13-10-25.8-16-38.2c-0.8,0.9-1.5,1.9-2.1,2.9
	c-2.2,3.7-2.6,8.1-1.2,12.1c0.6,1.4,1.4,2.7,1.9,4.2c2,5.4-0.3,12,2.9,16.8C716.8,251.6,722.7,252.5,727.1,250.5z"/>
<path fill="#63AC00" d="M66.1,231.7c-9.2,6-13.4,17.4-10.2,28c2.1,6.4,6.7,11.5,10.5,17c3.8,5.5,6.9,12.2,5.5,18.7
	c-0.8,3.3-2.7,6.4-2.7,9.9c0,3.9,2.4,7.2,4.8,10.3l9.5,12.6c0.8,1.1,1.9,2.2,3.2,2.1c1-0.3,1.9-1,2.3-2c2.6-4.8,1.3-10.7,0.6-16.1
	s0-12,4.8-14.7c5.4-3,12.5,0.9,18.1-1.6c6.2-2.8,6.7-11.2,6.3-18c-0.3-5.5-0.9-11.5-4.6-15.6c-7.1-7.8-21.9-4.4-28.3-12.8
	c-2.5-3.2-3-7.5-4.1-11.4s-3.3-8.1-7.3-9.1c-4.3-1.1-8.6,2-12,4.9L66.1,231.7z"/>
<path fill="#63AC00" d="M144.6,85.2c-3.8,0.4-7.6,1.4-11.1,3c-8.1,6.8-16.1,14-23.7,21.7c-9,9-17.4,18.4-25.4,28.3
	c4.5,5.1,7.2,11.4,7.8,18.1c0.3,3.5,0,7.2,1.4,10.4c3,6.8,12.8,8.4,19.3,4.6s9.8-11.2,11.5-18.5c0.9-4.2,1.5-8.6,3.9-12.1
	c4.3-6.4,13.4-8.4,17.3-15c2.9-5,2.1-11.4,4.8-16.4c2.4-4.6,7.6-8,8.1-13.2C159.2,89.4,151.3,84.7,144.6,85.2z"/>
<path fill="#63AC00" d="M343.8,1.4c0,0.6,0,1.2-0.1,1.8c-0.5,3.1-1.4,6.7,0.7,9.1c1.1,1.2,2.7,1.8,4,2.8c2.6,1.9,3.9,5.1,5.7,7.8
	s5.1,5.1,8.1,4c2.8-1,3.9-4.4,4.2-7.4s0.3-6.2,2.2-8.6c1.1-1.1,2.3-2.1,3.5-3.1c2-2.1,3.1-4.9,2.9-7.8
	C364.5,0.1,354.1,0.6,343.8,1.4z"/>
<radialGradient id="SVGID_00000129912881961107103130000017568656164007565994_" cx="209.46" cy="539.5898" r="572.16" gradientTransform="matrix(1 0 0 -1 0 749.8898)" gradientUnits="userSpaceOnUse">
	<stop  offset="0" style="stop-color:#FFFFFF;stop-opacity:0"/>
	<stop  offset="1" style="stop-color:#003C6A;stop-opacity:0.4"/>
</radialGradient>
<circle fill="url(#SVGID_00000129912881961107103130000017568656164007565994_)" cx="375" cy="375" r="375"/>
<linearGradient id="SVGID_00000065059647945720845870000013747789901567776439_" gradientUnits="userSpaceOnUse" x1="212.9511" y1="805.5502" x2="322.5811" y2="465.1802" gradientTransform="matrix(1 0 0 -1 0 749.8898)">
	<stop  offset="0" style="stop-color:#A1D6F1;stop-opacity:0.8"/>
	<stop  offset="1" style="stop-color:#FFFFFF;stop-opacity:0"/>
</linearGradient>
<path fill="url(#SVGID_00000065059647945720845870000013747789901567776439_)" d="M196.3,291.8c121.5-121.5,280-183.6,439.3-186.3
	c-146.8-142-380.8-140.6-525.8,4.3C-8.1,227.7-31,404.4,40.8,545.3C71.8,449.6,125.1,362.7,196.3,291.8z"/>
</svg>
