<svg xmlns="http://www.w3.org/2000/svg" viewBox="0 0 64 64"><rect width="64" height="64" rx="14" fill="#7FD8FF"/><path d="M0 44c8-6 16-6 24 0s16 6 24 0 12-5 16-3v23H0z" fill="#2EC4B6"/><path d="M0 44c8-6 16-6 24 0s16 6 24 0 12-5 16-3" fill="none" stroke="#fff" stroke-width="3"/><path d="M20 46V10" stroke="#1B1F3B" stroke-width="4" stroke-linecap="round"/><path d="M22 11h26v18H22z" fill="#fff" stroke="#1B1F3B" stroke-width="3" stroke-linejoin="round"/><path d="M22 11h6.5v6H22zM35 11h6.5v6H35zM28.5 17H35v6h-6.5zM41.5 17H48v6h-6.5zM22 23h6.5v6H22zM35 23h6.5v6H35z" fill="#1B1F3B"/></svg>