<svg xmlns="http://www.w3.org/2000/svg" viewBox="0 0 900 1200" width="900" height="1200">
<defs><linearGradient id="g" x1="0" y1="0" x2="1" y2="1"><stop offset="0" stop-color="#9BE564"/><stop offset="1" stop-color="#4CC9F0"/></linearGradient></defs>
<rect width="900" height="1200" fill="url(#g)"/><rect x="61" y="83" width="40" height="40" rx="8" fill="#fff" opacity="0.1"/><rect x="174" y="250" width="69" height="69" rx="8" fill="#fff" opacity="0.15000000000000002"/><rect x="287" y="417" width="48" height="48" rx="8" fill="#fff" opacity="0.2"/><rect x="400" y="584" width="77" height="77" rx="8" fill="#fff" opacity="0.1"/><rect x="513" y="751" width="56" height="56" rx="8" fill="#fff" opacity="0.15000000000000002"/><rect x="626" y="918" width="85" height="85" rx="8" fill="#fff" opacity="0.2"/><rect x="739" y="1085" width="64" height="64" rx="8" fill="#fff" opacity="0.1"/><rect x="32" y="132" width="43" height="43" rx="8" fill="#fff" opacity="0.15000000000000002"/><rect x="145" y="299" width="72" height="72" rx="8" fill="#fff" opacity="0.2"/><rect x="258" y="466" width="51" height="51" rx="8" fill="#fff" opacity="0.1"/>
<rect x="250" y="360" width="400" height="400" rx="30" fill="#fff" opacity=".45" stroke="#5B3A1E" stroke-width="14"/><rect x="330" y="430" width="240" height="90" rx="18" fill="#9C8F86" stroke="#5B3A1E" stroke-width="16"/><rect x="425" y="515" width="50" height="220" rx="14" fill="#C98E5A" stroke="#5B3A1E" stroke-width="16"/>
<text x="450" y="860" text-anchor="middle" font-family="Nunito, Arial, sans-serif" font-weight="900" font-size="46" fill="#5B3A1E" opacity=".85">FOTO 2</text>
<text x="450" y="910" text-anchor="middle" font-family="Nunito, Arial, sans-serif" font-weight="700" font-size="28" fill="#5B3A1E" opacity=".7">Reemplazar por foto real (3:4)</text></svg>