<svg xmlns="http://www.w3.org/2000/svg" viewBox="0 0 900 1200" width="900" height="1200">
<defs><linearGradient id="g" x1="0" y1="0" x2="1" y2="1"><stop offset="0" stop-color="#FFD6A5"/><stop offset="1" stop-color="#A0D8F1"/></linearGradient></defs>
<rect width="900" height="1200" fill="url(#g)"/><rect x="0" y="0" width="40" height="40" rx="8" fill="#fff" opacity="0.1"/><rect x="113" y="167" width="69" height="69" rx="8" fill="#fff" opacity="0.15000000000000002"/><rect x="226" y="334" width="48" height="48" rx="8" fill="#fff" opacity="0.2"/><rect x="339" y="501" width="77" height="77" rx="8" fill="#fff" opacity="0.1"/><rect x="452" y="668" width="56" height="56" rx="8" fill="#fff" opacity="0.15000000000000002"/><rect x="565" y="835" width="85" height="85" rx="8" fill="#fff" opacity="0.2"/><rect x="678" y="1002" width="64" height="64" rx="8" fill="#fff" opacity="0.1"/><rect x="791" y="49" width="43" height="43" rx="8" fill="#fff" opacity="0.15000000000000002"/><rect x="84" y="216" width="72" height="72" rx="8" fill="#fff" opacity="0.2"/><rect x="197" y="383" width="51" height="51" rx="8" fill="#fff" opacity="0.1"/>
<rect x="250" y="360" width="400" height="400" rx="30" fill="#fff" opacity=".45" stroke="#5B3A1E" stroke-width="14"/><circle cx="450" cy="560" r="140" fill="#FFF6E5" stroke="#5B3A1E" stroke-width="16"/><path d="M450 450l40 110-40 110-40-110z" fill="#FF6B6B" stroke="#5B3A1E" stroke-width="12" stroke-linejoin="round"/>
<text x="450" y="860" text-anchor="middle" font-family="Nunito, Arial, sans-serif" font-weight="900" font-size="46" fill="#5B3A1E" opacity=".85">FOTO 1</text>
<text x="450" y="910" text-anchor="middle" font-family="Nunito, Arial, sans-serif" font-weight="700" font-size="28" fill="#5B3A1E" opacity=".7">Reemplazar por foto real (3:4)</text></svg>