<svg xmlns="http://www.w3.org/2000/svg" viewBox="0 0 900 1200" width="900" height="1200">
  <defs><linearGradient id="g" x1="0" y1="0" x2="1" y2="1"><stop offset="0" stop-color="#4CC9F0"/><stop offset="1" stop-color="#B388FF"/></linearGradient>
  <radialGradient id="l" cx=".5" cy=".42" r=".5"><stop offset="0" stop-color="#fff" stop-opacity=".55"/><stop offset="1" stop-color="#fff" stop-opacity="0"/></radialGradient></defs>
  <rect width="900" height="1200" fill="url(#g)"/><rect x="0" y="0" width="30" height="30" rx="7.5" fill="#fff" opacity="0.08" transform="rotate(-20 15 15)"/><rect x="97" y="151" width="67" height="67" rx="16.75" fill="#fff" opacity="0.13" transform="rotate(3 130.5 184.5)"/><rect x="194" y="302" width="54" height="54" rx="13.5" fill="#fff" opacity="0.18" transform="rotate(-14 221 329)"/><rect x="291" y="453" width="41" height="41" rx="10.25" fill="#fff" opacity="0.08" transform="rotate(9 311.5 473.5)"/><rect x="388" y="604" width="78" height="78" rx="19.5" fill="#fff" opacity="0.13" transform="rotate(-8 427 643)"/><rect x="485" y="755" width="65" height="65" rx="16.25" fill="#fff" opacity="0.18" transform="rotate(15 517.5 787.5)"/><rect x="582" y="906" width="52" height="52" rx="13" fill="#fff" opacity="0.08" transform="rotate(-2 608 932)"/><rect x="679" y="1057" width="39" height="39" rx="9.75" fill="#fff" opacity="0.13" transform="rotate(-19 698.5 1076.5)"/><rect x="776" y="48" width="76" height="76" rx="19" fill="#fff" opacity="0.18" transform="rotate(4 814 86)"/><g transform="translate(50 150)">
  <circle cx="400" cy="420" r="300" fill="url(#l)"/>
  <rect x="220" y="240" width="360" height="360" rx="80" fill="#fff" opacity=".35" stroke="#1B2A6B" stroke-width="12"/>
  <path d="M400 300l38 78 86 12-62 61 15 86-77-41-77 41 15-86-62-61 86-12z" fill="#FFD23F" stroke="#1B2A6B" stroke-width="14" stroke-linejoin="round"/>
  <text x="400" y="720" text-anchor="middle" font-family="Rubik, Arial, sans-serif" font-weight="800" font-size="40" fill="#fff" opacity=".9">FOTO 1</text>
  <text x="400" y="770" text-anchor="middle" font-family="Rubik, Arial, sans-serif" font-weight="600" font-size="26" fill="#fff" opacity=".75">Reemplazar por foto real (3:4)</text></g>
</svg>