<svg xmlns="http://www.w3.org/2000/svg" viewBox="0 0 900 1200" width="900" height="1200">
  <defs><linearGradient id="g" x1="0" y1="0" x2="1" y2="1"><stop offset="0" stop-color="#FF9E6B"/><stop offset="1" stop-color="#FF6B6B"/></linearGradient>
  <radialGradient id="l" cx=".5" cy=".42" r=".5"><stop offset="0" stop-color="#fff" stop-opacity=".55"/><stop offset="1" stop-color="#fff" stop-opacity="0"/></radialGradient></defs>
  <rect width="900" height="1200" fill="url(#g)"/><rect x="53" y="71" width="30" height="30" rx="7.5" fill="#fff" opacity="0.08" transform="rotate(-20 68 86)"/><rect x="150" y="222" width="67" height="67" rx="16.75" fill="#fff" opacity="0.13" transform="rotate(3 183.5 255.5)"/><rect x="247" y="373" width="54" height="54" rx="13.5" fill="#fff" opacity="0.18" transform="rotate(-14 274 400)"/><rect x="344" y="524" width="41" height="41" rx="10.25" fill="#fff" opacity="0.08" transform="rotate(9 364.5 544.5)"/><rect x="441" y="675" width="78" height="78" rx="19.5" fill="#fff" opacity="0.13" transform="rotate(-8 480 714)"/><rect x="538" y="826" width="65" height="65" rx="16.25" fill="#fff" opacity="0.18" transform="rotate(15 570.5 858.5)"/><rect x="635" y="977" width="52" height="52" rx="13" fill="#fff" opacity="0.08" transform="rotate(-2 661 1003)"/><rect x="732" y="1128" width="39" height="39" rx="9.75" fill="#fff" opacity="0.13" transform="rotate(-19 751.5 1147.5)"/><rect x="829" y="119" width="76" height="76" rx="19" fill="#fff" opacity="0.18" transform="rotate(4 867 157)"/><g transform="translate(50 150)">
  <circle cx="400" cy="420" r="300" fill="url(#l)"/>
  <rect x="220" y="240" width="360" height="360" rx="80" fill="#fff" opacity=".35" stroke="#1B2A6B" stroke-width="12"/>
  <g stroke="#1B2A6B" stroke-width="14" stroke-linejoin="round" stroke-linecap="round"><path d="M330 300h140v70a70 70 0 01-140 0z" fill="#FFD23F"/><path d="M330 320h-46c0 46 20 70 50 74M470 320h46c0 46-20 70-50 74" fill="none"/><path d="M400 440v40M350 530h100l-12-50h-76z" fill="#FFD23F"/></g>
  <text x="400" y="720" text-anchor="middle" font-family="Rubik, Arial, sans-serif" font-weight="800" font-size="40" fill="#fff" opacity=".9">FOTO 2</text>
  <text x="400" y="770" text-anchor="middle" font-family="Rubik, Arial, sans-serif" font-weight="600" font-size="26" fill="#fff" opacity=".75">Reemplazar por foto real (3:4)</text></g>
</svg>